<svg width="20" height="20" viewBox="0 0 20 20" fill="none" xmlns="http://www.w3.org/2000/svg">
<path d="M16.6667 3.3335H3.33341C2.41294 3.3335 1.66675 4.07969 1.66675 5.00016V5.8335C1.66675 6.75397 2.41294 7.50016 3.33341 7.50016H16.6667C17.5872 7.50016 18.3334 6.75397 18.3334 5.8335V5.00016C18.3334 4.07969 17.5872 3.3335 16.6667 3.3335Z" stroke="white" stroke-opacity="0.6" stroke-width="2" stroke-linecap="round" stroke-linejoin="round"/>
<path d="M3.33325 7.5V15C3.33325 15.442 3.50885 15.866 3.82141 16.1785C4.13397 16.4911 4.55789 16.6667 4.99992 16.6667H14.9999C15.4419 16.6667 15.8659 16.4911 16.1784 16.1785C16.491 15.866 16.6666 15.442 16.6666 15V7.5" stroke="white" stroke-opacity="0.6" stroke-width="2" stroke-linecap="round" stroke-linejoin="round"/>
<path d="M8.33325 10.8335H11.6666" stroke="white" stroke-opacity="0.6" stroke-width="2" stroke-linecap="round" stroke-linejoin="round"/>
</svg>
